<svg width="118" height="141" viewBox="0 0 118 141" fill="none" xmlns="http://www.w3.org/2000/svg">
<path d="M71.4495 141C26.5229 141 0 117.47 0 76.6968C0 33.7682 29.5902 7.90319 71.2691 7.90319C84.4404 7.90319 97.0703 10.5975 103.024 12.0344L103.927 0H104.829L113.128 40.9529H112.226C103.746 23.3503 87.3272 10.2382 66.2171 10.4178C41.8593 10.5975 21.8318 26.9427 21.8318 68.2548C21.8318 112.98 44.7462 138.845 73.6147 138.845C96.7095 138.845 109.339 120.524 117.098 97.3529H118L112.948 133.636C103.205 137.048 88.7706 141 71.4495 141Z" fill="white"/>
</svg>
