<svg width="87" height="142" viewBox="0 0 87 142" fill="none" xmlns="http://www.w3.org/2000/svg">
<path d="M39.42 141.3C26.1 141.3 14.22 137.88 10.62 136.62L4.68 98.28H5.76C12.06 122.58 26.82 137.16 49.14 137.16C65.34 137.16 74.16 129.24 74.16 116.64C74.16 103.5 64.98 93.96 38.7 83.16C10.44 71.64 0 60.48 0 45.54C0 25.02 19.62 7.74 49.5 7.74C61.56 7.74 71.82 10.26 77.04 11.88L80.28 0H81.18V41.04H80.28C76.5 21.96 64.62 10.08 45 10.08C27.18 10.08 16.02 18.9 16.02 33.12C16.02 46.44 25.56 56.34 50.04 66.24C75.24 76.32 86.58 87.48 86.58 103.68C86.58 123.3 70.02 141.3 39.42 141.3Z" fill="white"/>
</svg>
